PathFileType	4	(X/Y/Z)	C:/Users/opensim2020/Desktop/walking_exp_matlab/subject01_walking07_straight_02.trc	
DataRate	CameraRate	NumFrames	NumMarkers	Units	OrigDataRate	OrigDataStartFrame	OrigNumFrames	
100.00	100.00	5	43	mm	100.00	1429	178	
Frame#	Time	LFHD			RFHD			LBHD			RBHD			C7			T10			CLAV			STRN			RBAK			LSHO			LUPA			LELB			LFRM			LWRA			LWRB			LFIN			RSHO			RUPA			RELB			RFRM			RWRA			RWRB			RFIN			LASI			RASI			LPSI			RPSI			LTHI			LKNE			LTIB			LANK			LHEE			LTOE			RTHI			RKNE			RTIB			RANK			RHEE			RTOE			*39			*40			*41			*42			
		X1	Y1	Z1	X2	Y2	Z2	X3	Y3	Z3	X4	Y4	Z4	X5	Y5	Z5	X6	Y6	Z6	X7	Y7	Z7	X8	Y8	Z8	X9	Y9	Z9	X10	Y10	Z10	X11	Y11	Z11	X12	Y12	Z12	X13	Y13	Z13	X14	Y14	Z14	X15	Y15	Z15	X16	Y16	Z16	X17	Y17	Z17	X18	Y18	Z18	X19	Y19	Z19	X20	Y20	Z20	X21	Y21	Z21	X22	Y22	Z22	X23	Y23	Z23	X24	Y24	Z24	X25	Y25	Z25	X26	Y26	Z26	X27	Y27	Z27	X28	Y28	Z28	X29	Y29	Z29	X30	Y30	Z30	X31	Y31	Z31	X32	Y32	Z32	X33	Y33	Z33	X34	Y34	Z34	X35	Y35	Z35	X36	Y36	Z36	X37	Y37	Z37	X38	Y38	Z38	X39	Y39	Z39	X40	Y40	Z40	X41	Y41	Z41	X42	Y42	Z42	X43	Y43	Z43	

1	0.000	-1027.12903	976.14551	1683.10315	-1137.74121	941.36542	1688.89307	-1057.39038	1086.36914	1632.92224	-1174.53882	1053.79004	1638.61780	-1083.57361	1112.62915	1440.93408	-1078.56812	1143.89392	1147.75647	-1083.91272	966.99634	1376.82654	-1074.96411	922.38538	1222.53418	-1153.68225	1164.25134	1244.66553	-922.14233	1023.68976	1410.67688	-830.84686	1051.20569	1228.18176	-826.13739	1068.60486	1078.65479	-801.56934	1031.62744	969.94623	-826.15167	960.63000	850.40015	-793.36615	1011.37073	849.28204	-790.80280	965.59210	776.79340	-1234.87549	1031.99133	1399.53308	-1329.91443	1081.95984	1194.90625	-1334.76477	1071.46912	1070.79736	-1368.69897	1031.02637	958.32251	-1359.27808	934.22430	853.73083	-1393.36804	981.17981	848.59485	-1393.98254	934.95343	775.23029	-973.19745	965.28931	943.83112	-1191.05383	971.69623	946.57813	-1017.62292	1151.96521	951.53644	-1162.67407	1156.14148	958.29553	-911.75714	922.40234	620.10956	-923.19653	906.66870	488.69058	-918.96167	1038.63965	361.60318	-966.36304	1178.50208	193.70819	-1024.46948	1227.12000	190.88258	-949.16577	1093.59656	77.07122	-1240.65576	1021.42010	610.98315	-1214.49158	1008.38153	453.06808	-1216.73853	1066.36292	284.72998	-1162.86804	1089.82178	80.13657	-1109.82361	1136.66553	43.08507	-1168.77869	949.50580	40.53230	-1118.13342	959.05481	1722.24902	-3102.02417	1973.05273	1023.56390	-3140.70630	2012.57581	1022.12183			 
2	0.010	-1028.04602	966.95093	1683.10596	-1138.32751	931.86566	1688.93689	-1058.55933	1077.21313	1633.25500	-1175.64917	1044.35681	1639.02429	-1085.14490	1103.81470	1441.21326	-1080.46545	1135.43689	1148.06067	-1085.18237	958.26184	1377.05408	-1076.07581	913.85693	1222.64331	-1155.82129	1155.30872	1245.05750	-923.37689	1015.42468	1410.75635	-832.31604	1044.84998	1228.39734	-828.08069	1064.03076	1079.23547	-803.03845	1030.04688	969.90509	-827.01282	961.71716	848.53876	-794.52734	1012.64203	848.82306	-791.60950	968.91455	775.09723	-1236.24805	1022.64093	1400.02820	-1332.02576	1071.32983	1195.52246	-1337.12549	1059.80383	1071.34839	-1371.12866	1017.49457	959.50275	-1361.77673	918.90137	856.68683	-1395.98889	965.65961	850.75415	-1396.73340	918.09454	778.46130	-974.82062	957.06079	944.50189	-1192.69421	963.61194	946.47986	-1018.94629	1143.69580	951.75598	-1163.96252	1148.07300	958.34656	-912.74371	910.06390	622.31293	-924.73749	893.15576	490.80423	-920.53033	1021.05145	359.07214	-968.74182	1155.04102	186.43874	-1026.96252	1203.89966	181.62123	-952.14673	1064.63818	73.86125	-1241.32874	1016.89496	611.01062	-1215.06152	1006.05676	452.78323	-1217.12378	1064.87939	284.84317	-1162.91809	1089.67676	80.36246	-1109.74402	1136.73499	43.48209	-1168.75391	949.31433	40.37063	-1118.89441	949.38922	1722.32861	-3101.88379	1973.22046	1023.50879	-3140.61719	2012.58459	1022.09644			 
3	0.020	-1028.82385	957.61182	1683.03479	-1139.04578	922.36224	1688.96765	-1059.66602	1068.07605	1633.54797	-1176.59021	1034.89209	1639.34814	-1086.65576	1094.92249	1441.44324	-1082.40002	1126.91870	1148.29590	-1086.07324	949.53717	1377.16394	-1077.05530	905.30768	1222.63245	-1157.85522	1146.35193	1245.39075	-924.52606	1007.20630	1410.73169	-833.72253	1038.39160	1228.53418	-829.88464	1059.52820	1079.81567	-804.48248	1028.09583	969.96509	-827.89655	962.61774	846.77112	-795.66534	1013.73358	848.45020	-792.40393	972.09424	773.52594	-1237.31348	1013.28180	1400.42737	-1334.02930	1060.75696	1196.08594	-1339.42749	1048.29077	1071.84644	-1373.59460	1004.08447	960.54950	-1364.07886	903.76929	859.65051	-1398.37659	950.22729	852.86243	-1399.33228	901.29218	781.56390	-976.18182	948.72961	945.00372	-1194.18286	955.43182	946.15906	-1020.18231	1135.43091	951.85712	-1165.10400	1139.75171	958.25378	-913.58221	897.83459	624.37073	-926.18732	879.96234	492.88068	-921.86139	1003.32916	355.84583	-971.18884	1130.85498	178.53149	-1029.44141	1178.90564	171.18112	-954.19324	1035.46399	70.86786	-1241.96094	1012.39514	610.86597	-1215.63013	1003.43561	452.41394	-1217.38013	1063.03650	284.89667	-1163.20789	1089.73486	80.83378	-1109.68567	1136.60144	43.98832	-1168.74976	949.31317	40.33995	-1119.38843	940.02472	1722.23193	-3101.90771	1973.15222	1023.50549	-3140.71289	2012.50586	1022.08044			 
4	0.030	-1029.46191	948.45337	1682.93640	-1139.64294	912.91351	1688.92310	-1060.64551	1058.90149	1633.70068	-1177.52148	1025.47412	1639.59473	-1088.09900	1086.03967	1441.59497	-1084.28674	1118.36328	1148.43042	-1086.98499	940.74762	1377.09705	-1078.01428	896.69281	1222.49609	-1159.84180	1137.40820	1245.67688	-925.65985	998.98370	1410.65381	-835.07117	1031.86401	1228.62061	-831.50342	1054.97644	1080.37341	-805.87738	1025.88525	969.98480	-828.74963	963.37439	845.13843	-796.37952	1014.18732	848.26263	-793.26917	974.79395	772.17590	-1238.44446	1003.91852	1400.75391	-1335.88879	1050.24194	1196.57800	-1341.64929	1036.82361	1072.26672	-1376.08093	990.85724	961.69354	-1366.20630	888.88586	862.41919	-1400.75342	935.18970	854.94879	-1401.80664	884.79218	784.69727	-977.68579	940.43103	945.49457	-1195.42798	947.31384	945.83679	-1021.34668	1127.14038	951.85498	-1166.42261	1132.03955	958.26477	-914.41895	885.67700	626.15210	-927.60370	867.12360	494.49960	-923.04492	985.31915	351.92664	-973.71283	1106.10364	170.12178	-1032.35767	1153.71375	160.43164	-955.70160	1005.70502	67.88271	-1242.86218	1008.39758	611.03113	-1216.06787	1000.61926	452.10287	-1217.80237	1060.96216	284.90906	-1163.28955	1089.46826	81.09120	-1109.70215	1136.50720	44.61469	-1168.75977	949.12512	40.41884	-1120.16943	930.34198	1722.23987	-3101.95508	1973.09119	1023.42035	-3140.67773	2012.52466	1022.04211			 
5	0.040	-1030.07703	939.32263	1682.70935	-1140.07703	903.47699	1688.74463	-1061.61279	1049.79968	1633.78076	-1178.37305	1016.06873	1639.76416	-1089.41113	1077.07300	1441.61487	-1086.11133	1109.78894	1148.49182	-1087.55640	932.16949	1376.98328	-1078.93176	888.14728	1222.36011	-1161.76074	1128.48755	1245.91040	-926.72809	990.71588	1410.42932	-836.39227	1025.36743	1228.61975	-833.17303	1050.10461	1080.79260	-807.27441	1023.52527	970.03217	-829.51080	963.62994	843.78491	-797.41486	1015.03430	848.05481	-794.42059	977.43945	770.76587	-1239.50452	994.54962	1401.01074	-1337.79590	1039.84412	1197.05847	-1343.81396	1025.43884	1072.56299	-1378.15808	977.70331	962.60687	-1368.47205	874.03955	865.43127	-1403.15637	920.20508	856.97021	-1404.15125	868.53503	787.73254	-978.85291	931.98499	945.72461	-1196.73364	939.11279	945.26874	-1022.37469	1118.81787	951.73749	-1167.26721	1123.61621	958.04340	-915.31531	873.99274	627.81116	-928.97107	854.52496	495.82254	-924.36920	967.36273	347.68692	-976.21741	1080.89600	161.43204	-1035.31360	1127.50269	149.00847	-956.64996	975.30164	65.13248	-1243.21765	1003.57501	610.73981	-1216.54492	997.65100	451.75729	-1218.18225	1059.03748	285.08740	-1163.42102	1089.16907	81.42541	-1109.75500	1135.99512	45.21476	-1168.72778	948.92957	40.44843	-1120.60229	920.99786	1722.10925	-3101.92993	1973.08655	1023.41412	-3140.83423	2012.54980	1022.05481			 
